<svg xmlns="http://www.w3.org/2000/svg" xmlns:xlink="http://www.w3.org/1999/xlink" id="terminal" baseProfile="full" viewBox="0 0 535 183" width="535" version="1.1"><defs/><defs><style type="text/css" id="generated-style">@keyframes roll{0%{transform:translateY(0)}18.161%{transform:translateY(-136px)}19.138%{transform:translateY(-272px)}21.598%{transform:translateY(-408px)}22.278%{transform:translateY(-544px)}25.227%{transform:translateY(-680px)}28.385%{transform:translateY(-816px)}32.676%{transform:translateY(-952px)}34.543%{transform:translateY(-1088px)}36.811%{transform:translateY(-1224px)}39.567%{transform:translateY(-1360px)}42.306%{transform:translateY(-1496px)}45.447%{transform:translateY(-1632px)}46.441%{transform:translateY(-1768px)}51.727%{transform:translateY(-1904px)}52.948%{transform:translateY(-2040px)}58.583%{transform:translateY(-2176px)}59.403%{transform:translateY(-2312px)}61.863%{transform:translateY(-2448px)}82.554%,to{transform:translateY(-2584px)}}text{dominant-baseline:text-before-edge;white-space:pre}:root{--animation-duration: 5732ms}</style><style type="text/css" id="user-style">.foreground{fill:#f8f8f2}.background,.color0{fill:#272822}.color3{fill:#f4bf75}.color4{fill:#66d9ef}</style></defs><rect id="terminalui" class="background" width="100%" height="100%" ry="4.5826941"/><circle cx="24" cy="23" r="7" fill="#f92672"/><circle cx="44" cy="23" r="7" class="color3"/><circle cx="64" cy="23" r="7" fill="#a6e22e"/><svg width="488" height="102" x="23" y="50" preserveAspectRatio="xMidYMin slice" style="font-variant-ligatures:normal" font-family="&quot;CascadiaCode Nerd Font&quot;,&quot;Source Code Pro&quot;,Consolas,&quot;Ubuntu Mono&quot;,Menlo,&quot;DejaVu Sans Mono&quot;,monospace" font-size=".875em"><rect class="background" height="100%" width="100%"/><defs><g id="g1"><text textLength="168" class="color0">.../blog/scratchpad</text><text x="168" textLength="8" class="color4"></text><text x="176" textLength="96" class="color0"> master ●</text><text x="272" textLength="16" class="color3"></text><text x="288" textLength="8" class="background"></text></g><g id="g2"><text textLength="168" class="color0">.../blog/scratchpad</text><text x="168" textLength="8" class="color4"></text><text x="176" textLength="96" class="color0"> master ●</text><text x="272" textLength="16" class="color3"></text><text x="288" textLength="8" class="foreground">n</text><text x="296" textLength="8" class="background"></text></g><g id="g3"><text textLength="168" class="color0">.../blog/scratchpad</text><text x="168" textLength="8" class="color4"></text><text x="176" textLength="96" class="color0"> master ●</text><text x="272" textLength="16" class="color3"></text><text x="288" textLength="16" class="foreground">no</text><text x="304" textLength="8" class="background"></text></g><g id="g4"><text textLength="168" class="color0">.../blog/scratchpad</text><text x="168" textLength="8" class="color4"></text><text x="176" textLength="96" class="color0"> master ●</text><text x="272" textLength="16" class="color3"></text><text x="288" textLength="24" class="foreground">nod</text><text x="312" textLength="8" class="background"></text></g><g id="g5"><text textLength="168" class="color0">.../blog/scratchpad</text><text x="168" textLength="8" class="color4"></text><text x="176" textLength="96" class="color0"> master ●</text><text x="272" textLength="16" class="color3"></text><text x="288" textLength="32" class="foreground">node</text><text x="320" textLength="8" class="background"></text></g><g id="g6"><text textLength="168" class="color0">.../blog/scratchpad</text><text x="168" textLength="8" class="color4"></text><text x="176" textLength="96" class="color0"> master ●</text><text x="272" textLength="16" class="color3"></text><text x="288" textLength="40" class="foreground">node</text><text x="328" textLength="8" class="background"></text></g><g id="g7"><text textLength="168" class="color0">.../blog/scratchpad</text><text x="168" textLength="8" class="color4"></text><text x="176" textLength="96" class="color0"> master ●</text><text x="272" textLength="16" class="color3"></text><text x="288" textLength="48" class="foreground">node e</text><text x="336" textLength="8" class="background"></text></g><g id="g8"><text textLength="168" class="color0">.../blog/scratchpad</text><text x="168" textLength="8" class="color4"></text><text x="176" textLength="96" class="color0"> master ●</text><text x="272" textLength="16" class="color3"></text><text x="288" textLength="56" class="foreground">node ex</text><text x="344" textLength="8" class="background"></text></g><g id="g9"><text textLength="168" class="color0">.../blog/scratchpad</text><text x="168" textLength="8" class="color4"></text><text x="176" textLength="96" class="color0"> master ●</text><text x="272" textLength="16" class="color3"></text><text x="288" textLength="64" class="foreground">node exa</text><text x="352" textLength="8" class="background"></text></g><g id="g10"><text textLength="168" class="color0">.../blog/scratchpad</text><text x="168" textLength="8" class="color4"></text><text x="176" textLength="96" class="color0"> master ●</text><text x="272" textLength="16" class="color3"></text><text x="288" textLength="72" class="foreground">node exam</text><text x="360" textLength="8" class="background"></text></g><g id="g11"><text textLength="168" class="color0">.../blog/scratchpad</text><text x="168" textLength="8" class="color4"></text><text x="176" textLength="96" class="color0"> master ●</text><text x="272" textLength="16" class="color3"></text><text x="288" textLength="80" class="foreground">node examp</text><text x="368" textLength="8" class="background"></text></g><g id="g12"><text textLength="168" class="color0">.../blog/scratchpad</text><text x="168" textLength="8" class="color4"></text><text x="176" textLength="96" class="color0"> master ●</text><text x="272" textLength="16" class="color3"></text><text x="288" textLength="88" class="foreground">node exampl</text><text x="376" textLength="8" class="background"></text></g><g id="g13"><text textLength="168" class="color0">.../blog/scratchpad</text><text x="168" textLength="8" class="color4"></text><text x="176" textLength="96" class="color0"> master ●</text><text x="272" textLength="16" class="color3"></text><text x="288" textLength="96" class="foreground">node example</text><text x="384" textLength="8" class="background"></text></g><g id="g14"><text textLength="168" class="color0">.../blog/scratchpad</text><text x="168" textLength="8" class="color4"></text><text x="176" textLength="96" class="color0"> master ●</text><text x="272" textLength="16" class="color3"></text><text x="288" textLength="104" class="foreground">node example.</text><text x="392" textLength="8" class="background"></text></g><g id="g15"><text textLength="168" class="color0">.../blog/scratchpad</text><text x="168" textLength="8" class="color4"></text><text x="176" textLength="96" class="color0"> master ●</text><text x="272" textLength="16" class="color3"></text><text x="288" textLength="112" class="foreground">node example.j</text><text x="400" textLength="8" class="background"></text></g><g id="g16"><text textLength="168" class="color0">.../blog/scratchpad</text><text x="168" textLength="8" class="color4"></text><text x="176" textLength="96" class="color0"> master ●</text><text x="272" textLength="16" class="color3"></text><text x="288" textLength="120" class="foreground">node example.js</text><text x="408" textLength="8" class="background"></text></g><g id="g17"><text textLength="168" class="color0">.../blog/scratchpad</text><text x="168" textLength="8" class="color4"></text><text x="176" textLength="96" class="color0"> master ●</text><text x="272" textLength="16" class="color3"></text><text x="288" textLength="120" class="foreground">node example.js</text></g><g id="g20"><text textLength="168" class="color0">.../blog/scratchpad</text><text x="168" textLength="8" class="color4"></text><text x="176" textLength="96" class="color0"> master ●</text><text x="272" textLength="16" class="color3"></text><text x="288" textLength="32" class="foreground">exit</text></g><text textLength="8" class="background" id="g18"></text><text textLength="8" class="color3" id="g19">4</text></defs><g style="animation-duration:5732ms;animation-iteration-count:infinite;animation-name:roll;animation-timing-function:steps(1,end);animation-fill-mode:forwards"><path class="color4" d="M0 0h168v17H0z"/><path class="color3" d="M168 0h104v17H168z"/><path class="foreground" d="M288 0h8v17h-8z"/><use xlink:href="#g1"/><path class="color4" d="M0 136h168v17H0z"/><path class="color3" d="M168 136h104v17H168z"/><path class="foreground" d="M296 136h8v17h-8z"/><use xlink:href="#g2" y="136"/><path class="color4" d="M0 272h168v17H0z"/><path class="color3" d="M168 272h104v17H168z"/><path class="foreground" d="M304 272h8v17h-8z"/><use xlink:href="#g3" y="272"/><path class="color4" d="M0 408h168v17H0z"/><path class="color3" d="M168 408h104v17H168z"/><path class="foreground" d="M312 408h8v17h-8z"/><use xlink:href="#g4" y="408"/><path class="color4" d="M0 544h168v17H0z"/><path class="color3" d="M168 544h104v17H168z"/><path class="foreground" d="M320 544h8v17h-8z"/><use xlink:href="#g5" y="544"/><g><path class="color4" d="M0 680h168v17H0z"/><path class="color3" d="M168 680h104v17H168z"/><path class="foreground" d="M328 680h8v17h-8z"/><use xlink:href="#g6" y="680"/></g><g><path class="color4" d="M0 816h168v17H0z"/><path class="color3" d="M168 816h104v17H168z"/><path class="foreground" d="M336 816h8v17h-8z"/><use xlink:href="#g7" y="816"/></g><g><path class="color4" d="M0 952h168v17H0z"/><path class="color3" d="M168 952h104v17H168z"/><path class="foreground" d="M344 952h8v17h-8z"/><use xlink:href="#g8" y="952"/></g><g><path class="color4" d="M0 1088h168v17H0z"/><path class="color3" d="M168 1088h104v17H168z"/><path class="foreground" d="M352 1088h8v17h-8z"/><use xlink:href="#g9" y="1088"/></g><g><path class="color4" d="M0 1224h168v17H0z"/><path class="color3" d="M168 1224h104v17H168z"/><path class="foreground" d="M360 1224h8v17h-8z"/><use xlink:href="#g10" y="1224"/></g><g><path class="color4" d="M0 1360h168v17H0z"/><path class="color3" d="M168 1360h104v17H168z"/><path class="foreground" d="M368 1360h8v17h-8z"/><use xlink:href="#g11" y="1360"/></g><g><path class="color4" d="M0 1496h168v17H0z"/><path class="color3" d="M168 1496h104v17H168z"/><path class="foreground" d="M376 1496h8v17h-8z"/><use xlink:href="#g12" y="1496"/></g><g><path class="color4" d="M0 1632h168v17H0z"/><path class="color3" d="M168 1632h104v17H168z"/><path class="foreground" d="M384 1632h8v17h-8z"/><use xlink:href="#g13" y="1632"/></g><g><path class="color4" d="M0 1768h168v17H0z"/><path class="color3" d="M168 1768h104v17H168z"/><path class="foreground" d="M392 1768h8v17h-8z"/><use xlink:href="#g14" y="1768"/></g><g><path class="color4" d="M0 1904h168v17H0z"/><path class="color3" d="M168 1904h104v17H168z"/><path class="foreground" d="M400 1904h8v17h-8z"/><use xlink:href="#g15" y="1904"/></g><g><path class="color4" d="M0 2040h168v17H0z"/><path class="color3" d="M168 2040h104v17H168z"/><path class="foreground" d="M408 2040h8v17h-8z"/><use xlink:href="#g16" y="2040"/></g><g><path class="color4" d="M0 2176h168v17H0z"/><path class="color3" d="M168 2176h104v17H168z"/><use xlink:href="#g17" y="2176"/><path class="foreground" d="M0 2193h8v17H0z"/><use xlink:href="#g18" y="2193"/></g><g><path class="color4" d="M0 2312h168v17H0z"/><path class="color3" d="M168 2312h104v17H168z"/><use xlink:href="#g17" y="2312"/><use xlink:href="#g19" y="2329"/><path class="foreground" d="M0 2346h8v17H0z"/><use xlink:href="#g18" y="2346"/></g><g><path class="color4" d="M0 2448h168v17H0z"/><path class="color3" d="M168 2448h104v17H168z"/><use xlink:href="#g17" y="2448"/><use xlink:href="#g19" y="2465"/><path class="color4" d="M0 2482h168v17H0z"/><path class="color3" d="M168 2482h104v17H168z"/><path class="foreground" d="M288 2482h8v17h-8z"/><use xlink:href="#g1" y="2482"/></g><g><path class="color4" d="M0 2584h168v17H0z"/><path class="color3" d="M168 2584h104v17H168z"/><use xlink:href="#g17" y="2584"/><use xlink:href="#g19" y="2601"/><path class="color4" d="M0 2618h168v17H0z"/><path class="color3" d="M168 2618h104v17H168z"/><use xlink:href="#g20" y="2618"/><path class="foreground" d="M0 2635h8v17H0z"/><use xlink:href="#g18" y="2635"/></g></g></svg></svg>