<svg viewBox="0 0 535 183" width="535" xmlns="http://www.w3.org/2000/svg" xmlns:xlink="http://www.w3.org/1999/xlink"><defs>        <style type="text/css" id="generated-style"><![CDATA[#screen {
                font-family: "CascadiaCode Nerd Font", "Source Code Pro", Consolas, "Ubuntu Mono", Menlo, "DejaVu Sans Mono", monospace; font-variant-ligatures: normal;
                font-style: normal;
                font-size: 0.875em;
            }

        text {
            dominant-baseline: text-before-edge;
            white-space: pre;
        }
    
            :root {
                --animation-duration: 5732ms;
            }

            @keyframes roll {
                0.000%{transform:translateY(0px)}
18.161%{transform:translateY(-136px)}
19.138%{transform:translateY(-272px)}
21.598%{transform:translateY(-408px)}
22.278%{transform:translateY(-544px)}
25.227%{transform:translateY(-680px)}
28.385%{transform:translateY(-816px)}
32.676%{transform:translateY(-952px)}
34.543%{transform:translateY(-1088px)}
36.811%{transform:translateY(-1224px)}
39.567%{transform:translateY(-1360px)}
42.306%{transform:translateY(-1496px)}
45.447%{transform:translateY(-1632px)}
46.441%{transform:translateY(-1768px)}
51.727%{transform:translateY(-1904px)}
52.948%{transform:translateY(-2040px)}
58.583%{transform:translateY(-2176px)}
59.403%{transform:translateY(-2312px)}
61.863%{transform:translateY(-2448px)}
82.554%{transform:translateY(-2584px)}
100.000%{transform:translateY(-2584px)}
            }

            #screen_view {
                animation-duration: 5732ms;
                animation-iteration-count:infinite;
                animation-name:roll;
                animation-timing-function: steps(1,end);
                animation-fill-mode: forwards;
            }
        ]]></style><g id="a"><text fill="#272822" textLength="168">.../blog/scratchpad</text><text fill="#66d9ef" textLength="8" x="168"></text><text fill="#272822" textLength="96" x="176"> master ●</text><text fill="#f4bf75" textLength="16" x="272"></text><text fill="#272822" textLength="8" x="288"/></g><g id="b"><text fill="#272822" textLength="168">.../blog/scratchpad</text><text fill="#66d9ef" textLength="8" x="168"></text><text fill="#272822" textLength="96" x="176"> master ●</text><text fill="#f4bf75" textLength="16" x="272"></text><text fill="#f8f8f2" textLength="120" x="288">node example.js</text></g><g id="c"><text fill="#272822" textLength="8"/></g><g id="d"><text fill="#f4bf75" textLength="8">4</text></g></defs><rect fill="#272822" height="100%" ry="4.582694" width="100%"/><circle cx="24" cy="23" fill="#f92672" r="7"/><circle cx="44" cy="23" fill="#f4bf75" r="7"/><circle cx="64" cy="23" fill="#a6e22e" r="7"/><svg height="102" preserveAspectRatio="xMidYMin slice" viewBox="0 0 488 102" width="488" x="23" y="50"><rect fill="#272822" height="100%" width="100%"/><path d="m0 0h168v17h-168z" fill="#66d9ef"/><path d="m168 0h104v17h-104z" fill="#f4bf75"/><path d="m288 0h8v17h-8z" fill="#f8f8f2"/><use xlink:href="#a"/><path d="m0 136h168v17h-168z" fill="#66d9ef"/><path d="m168 136h104v17h-104z" fill="#f4bf75"/><path d="m296 136h8v17h-8z" fill="#f8f8f2"/><g transform="translate(0 136)"><text fill="#272822" textLength="168">.../blog/scratchpad</text><text fill="#66d9ef" textLength="8" x="168"></text><text fill="#272822" textLength="96" x="176"> master ●</text><text fill="#f4bf75" textLength="16" x="272"></text><text fill="#f8f8f2" textLength="8" x="288">n</text><text fill="#272822" textLength="8" x="296"/></g><path d="m0 272h168v17h-168z" fill="#66d9ef"/><path d="m168 272h104v17h-104z" fill="#f4bf75"/><path d="m304 272h8v17h-8z" fill="#f8f8f2"/><g transform="translate(0 272)"><text fill="#272822" textLength="168">.../blog/scratchpad</text><text fill="#66d9ef" textLength="8" x="168"></text><text fill="#272822" textLength="96" x="176"> master ●</text><text fill="#f4bf75" textLength="16" x="272"></text><text fill="#f8f8f2" textLength="16" x="288">no</text><text fill="#272822" textLength="8" x="304"/></g><path d="m0 408h168v17h-168z" fill="#66d9ef"/><path d="m168 408h104v17h-104z" fill="#f4bf75"/><path d="m312 408h8v17h-8z" fill="#f8f8f2"/><g transform="translate(0 408)"><text fill="#272822" textLength="168">.../blog/scratchpad</text><text fill="#66d9ef" textLength="8" x="168"></text><text fill="#272822" textLength="96" x="176"> master ●</text><text fill="#f4bf75" textLength="16" x="272"></text><text fill="#f8f8f2" textLength="24" x="288">nod</text><text fill="#272822" textLength="8" x="312"/></g><path d="m0 544h168v17h-168z" fill="#66d9ef"/><path d="m168 544h104v17h-104z" fill="#f4bf75"/><path d="m320 544h8v17h-8z" fill="#f8f8f2"/><g transform="translate(0 544)"><text fill="#272822" textLength="168">.../blog/scratchpad</text><text fill="#66d9ef" textLength="8" x="168"></text><text fill="#272822" textLength="96" x="176"> master ●</text><text fill="#f4bf75" textLength="16" x="272"></text><text fill="#f8f8f2" textLength="32" x="288">node</text><text fill="#272822" textLength="8" x="320"/></g><path d="m0 680h168v17h-168z" fill="#66d9ef"/><path d="m168 680h104v17h-104z" fill="#f4bf75"/><path d="m328 680h8v17h-8z" fill="#f8f8f2"/><g transform="translate(0 680)"><text fill="#272822" textLength="168">.../blog/scratchpad</text><text fill="#66d9ef" textLength="8" x="168"></text><text fill="#272822" textLength="96" x="176"> master ●</text><text fill="#f4bf75" textLength="16" x="272"></text><text fill="#f8f8f2" textLength="40" x="288">node</text><text fill="#272822" textLength="8" x="328"/></g><path d="m0 816h168v17h-168z" fill="#66d9ef"/><path d="m168 816h104v17h-104z" fill="#f4bf75"/><path d="m336 816h8v17h-8z" fill="#f8f8f2"/><g transform="translate(0 816)"><text fill="#272822" textLength="168">.../blog/scratchpad</text><text fill="#66d9ef" textLength="8" x="168"></text><text fill="#272822" textLength="96" x="176"> master ●</text><text fill="#f4bf75" textLength="16" x="272"></text><text fill="#f8f8f2" textLength="48" x="288">node e</text><text fill="#272822" textLength="8" x="336"/></g><path d="m0 952h168v17h-168z" fill="#66d9ef"/><path d="m168 952h104v17h-104z" fill="#f4bf75"/><path d="m344 952h8v17h-8z" fill="#f8f8f2"/><g transform="translate(0 952)"><text fill="#272822" textLength="168">.../blog/scratchpad</text><text fill="#66d9ef" textLength="8" x="168"></text><text fill="#272822" textLength="96" x="176"> master ●</text><text fill="#f4bf75" textLength="16" x="272"></text><text fill="#f8f8f2" textLength="56" x="288">node ex</text><text fill="#272822" textLength="8" x="344"/></g><path d="m0 1088h168v17h-168z" fill="#66d9ef"/><path d="m168 1088h104v17h-104z" fill="#f4bf75"/><path d="m352 1088h8v17h-8z" fill="#f8f8f2"/><g transform="translate(0 1088)"><text fill="#272822" textLength="168">.../blog/scratchpad</text><text fill="#66d9ef" textLength="8" x="168"></text><text fill="#272822" textLength="96" x="176"> master ●</text><text fill="#f4bf75" textLength="16" x="272"></text><text fill="#f8f8f2" textLength="64" x="288">node exa</text><text fill="#272822" textLength="8" x="352"/></g><path d="m0 1224h168v17h-168z" fill="#66d9ef"/><path d="m168 1224h104v17h-104z" fill="#f4bf75"/><path d="m360 1224h8v17h-8z" fill="#f8f8f2"/><g transform="translate(0 1224)"><text fill="#272822" textLength="168">.../blog/scratchpad</text><text fill="#66d9ef" textLength="8" x="168"></text><text fill="#272822" textLength="96" x="176"> master ●</text><text fill="#f4bf75" textLength="16" x="272"></text><text fill="#f8f8f2" textLength="72" x="288">node exam</text><text fill="#272822" textLength="8" x="360"/></g><path d="m0 1360h168v17h-168z" fill="#66d9ef"/><path d="m168 1360h104v17h-104z" fill="#f4bf75"/><path d="m368 1360h8v17h-8z" fill="#f8f8f2"/><g transform="translate(0 1360)"><text fill="#272822" textLength="168">.../blog/scratchpad</text><text fill="#66d9ef" textLength="8" x="168"></text><text fill="#272822" textLength="96" x="176"> master ●</text><text fill="#f4bf75" textLength="16" x="272"></text><text fill="#f8f8f2" textLength="80" x="288">node examp</text><text fill="#272822" textLength="8" x="368"/></g><path d="m0 1496h168v17h-168z" fill="#66d9ef"/><path d="m168 1496h104v17h-104z" fill="#f4bf75"/><path d="m376 1496h8v17h-8z" fill="#f8f8f2"/><g transform="translate(0 1496)"><text fill="#272822" textLength="168">.../blog/scratchpad</text><text fill="#66d9ef" textLength="8" x="168"></text><text fill="#272822" textLength="96" x="176"> master ●</text><text fill="#f4bf75" textLength="16" x="272"></text><text fill="#f8f8f2" textLength="88" x="288">node exampl</text><text fill="#272822" textLength="8" x="376"/></g><path d="m0 1632h168v17h-168z" fill="#66d9ef"/><path d="m168 1632h104v17h-104z" fill="#f4bf75"/><path d="m384 1632h8v17h-8z" fill="#f8f8f2"/><g transform="translate(0 1632)"><text fill="#272822" textLength="168">.../blog/scratchpad</text><text fill="#66d9ef" textLength="8" x="168"></text><text fill="#272822" textLength="96" x="176"> master ●</text><text fill="#f4bf75" textLength="16" x="272"></text><text fill="#f8f8f2" textLength="96" x="288">node example</text><text fill="#272822" textLength="8" x="384"/></g><path d="m0 1768h168v17h-168z" fill="#66d9ef"/><path d="m168 1768h104v17h-104z" fill="#f4bf75"/><path d="m392 1768h8v17h-8z" fill="#f8f8f2"/><g transform="translate(0 1768)"><text fill="#272822" textLength="168">.../blog/scratchpad</text><text fill="#66d9ef" textLength="8" x="168"></text><text fill="#272822" textLength="96" x="176"> master ●</text><text fill="#f4bf75" textLength="16" x="272"></text><text fill="#f8f8f2" textLength="104" x="288">node example.</text><text fill="#272822" textLength="8" x="392"/></g><path d="m0 1904h168v17h-168z" fill="#66d9ef"/><path d="m168 1904h104v17h-104z" fill="#f4bf75"/><path d="m400 1904h8v17h-8z" fill="#f8f8f2"/><g transform="translate(0 1904)"><text fill="#272822" textLength="168">.../blog/scratchpad</text><text fill="#66d9ef" textLength="8" x="168"></text><text fill="#272822" textLength="96" x="176"> master ●</text><text fill="#f4bf75" textLength="16" x="272"></text><text fill="#f8f8f2" textLength="112" x="288">node example.j</text><text fill="#272822" textLength="8" x="400"/></g><path d="m0 2040h168v17h-168z" fill="#66d9ef"/><path d="m168 2040h104v17h-104z" fill="#f4bf75"/><path d="m408 2040h8v17h-8z" fill="#f8f8f2"/><g transform="translate(0 2040)"><text fill="#272822" textLength="168">.../blog/scratchpad</text><text fill="#66d9ef" textLength="8" x="168"></text><text fill="#272822" textLength="96" x="176"> master ●</text><text fill="#f4bf75" textLength="16" x="272"></text><text fill="#f8f8f2" textLength="120" x="288">node example.js</text><text fill="#272822" textLength="8" x="408"/></g><path d="m0 2176h168v17h-168z" fill="#66d9ef"/><path d="m168 2176h104v17h-104z" fill="#f4bf75"/><use xlink:href="#b" y="2176"/><path d="m0 2193h8v17h-8z" fill="#f8f8f2"/><use xlink:href="#c" y="2193"/><path d="m0 2312h168v17h-168z" fill="#66d9ef"/><path d="m168 2312h104v17h-104z" fill="#f4bf75"/><use xlink:href="#b" y="2312"/><use xlink:href="#d" y="2329"/><path d="m0 2346h8v17h-8z" fill="#f8f8f2"/><use xlink:href="#c" y="2346"/><path d="m0 2448h168v17h-168z" fill="#66d9ef"/><path d="m168 2448h104v17h-104z" fill="#f4bf75"/><use xlink:href="#b" y="2448"/><use xlink:href="#d" y="2465"/><path d="m0 2482h168v17h-168z" fill="#66d9ef"/><path d="m168 2482h104v17h-104z" fill="#f4bf75"/><path d="m288 2482h8v17h-8z" fill="#f8f8f2"/><use xlink:href="#a" y="2482"/><path d="m0 2584h168v17h-168z" fill="#66d9ef"/><path d="m168 2584h104v17h-104z" fill="#f4bf75"/><use xlink:href="#b" y="2584"/><use xlink:href="#d" y="2601"/><path d="m0 2618h168v17h-168z" fill="#66d9ef"/><path d="m168 2618h104v17h-104z" fill="#f4bf75"/><g transform="translate(0 2618)"><text fill="#272822" textLength="168">.../blog/scratchpad</text><text fill="#66d9ef" textLength="8" x="168"></text><text fill="#272822" textLength="96" x="176"> master ●</text><text fill="#f4bf75" textLength="16" x="272"></text><text fill="#f8f8f2" textLength="32" x="288">exit</text></g><path d="m0 2635h8v17h-8z" fill="#f8f8f2"/><use xlink:href="#c" y="2635"/></svg></svg>